# xmcd
#
# Track frame offsets: 
#        150
#        13621
#        29426
#        43259
#        57945
#        70001
#        81608
#        93880
#        105272
#        117577
#        145861
#        155031
#        175348
#        188819
#        204156
#        215952
#        231825
#        247162
#        258629
#        270826
#        285372
#
# Disc length: 3959 seconds
#
# Revision: 1
# Processed by: cddbd v1.5.2PL0 Copyright (c) Steve Scherf et al.
# Submitted via: ExactAudioCopy v0.95a5
#
DISCID=340f7515
DTITLE=Various Artist - 125 Irish Hits CD1
DYEAR=2006
DGENRE=Celtic
TTITLE0=Ann Breen - Irish Lullaby
TTITLE1=Brier - Murphy and The Bricks (Sicknote)
TTITLE2=Frankie McBride - Five Little Fingers
TTITLE3=Hugo Duncan - Veil Of White Lace
TTITLE4=Eileen Donaghy /A Mother Loves A Blessing
TTITLE5=Teamwork - Sunset Years Of My Life
TTITLE6=Frank McCaffrey - Coastline Of Mayo
TTITLE7=John Glenn - Little Country Town In Ireland
TTITLE8=Ann Breen - Gentle Mother
TTITLE9=Paddy Reilly - The Town I Loved So Well
TTITLE10=Joe Hamilton - Astoreen Bawn
TTITLE11=Brain Coll - The Road To Kildare
TTITLE12=John Kerr - Village Where I Went To School
TTITLE13=Larry Cunningham - Doonaree
TTITLE14=Connie Foley - Homes Of Donegal
TTITLE15=Susan McCann - Lovely Rose Of Clare
TTITLE16=Margo - Shanagolden
TTITLE17=Hugo  Ducan - Old Flames (Can´t Hold A Candle To You)
TTITLE18=Barleycorn - Rann Na Feirst
TTITLE19=The Blarney Lads - I'm A Rover
TTITLE20=Hugo McClean - Where My Eileen Is Waiting
EXTD=
EXTT0=
EXTT1=
EXTT2=
EXTT3=
EXTT4=
EXTT5=
EXTT6=
EXTT7=
EXTT8=
EXTT9=
EXTT10=
EXTT11=
EXTT12=
EXTT13=
EXTT14=
EXTT15=
EXTT16=
EXTT17=
EXTT18=
EXTT19=
EXTT20=
PLAYORDER=
